<svg width="37" height="36" viewBox="0 0 37 36" fill="none" xmlns="http://www.w3.org/2000/svg">
<path d="M1.42947 18.4097C1.42947 18.4097 3.00432 16.8348 5.02913 17.2848C7.27892 17.9597 9.07875 19.3096 10.4286 20.8844C11.7785 22.2343 12.2285 24.2591 12.2285 24.2591C12.2285 24.2591 18.7528 15.035 24.1523 9.41052C29.1019 4.236 33.8264 1.08629 34.5014 0.636337C35.1763 0.186379 35.8513 -0.263579 36.3012 0.186379C36.7512 0.636337 37.2011 1.31127 36.7512 1.76123C36.3012 2.21119 29.5518 10.3104 25.9522 15.035C21.9026 20.4345 19.6528 25.384 15.8281 31.2335C14.9282 32.8083 12.4534 36.183 10.6536 35.958C10.2036 35.958 8.62879 31.0085 8.17884 29.8836C6.82896 27.8588 5.25411 24.7091 2.32938 21.7844C0.979508 20.4345 0.0795918 19.7595 1.42947 18.4097Z" fill="#FFCF72"/>
</svg>
