<svg width="26" height="26" viewBox="0 0 26 26" fill="none" xmlns="http://www.w3.org/2000/svg">
<path d="M0.479918 13.3074C0.479918 13.3074 1.61178 12.169 3.06704 12.4943C4.68399 12.9822 5.97755 13.9579 6.94772 15.0963C7.91789 16.0721 8.24128 17.5357 8.24128 17.5357C8.24128 17.5357 12.9304 10.868 16.8111 6.80239C20.3684 3.06199 23.764 0.785228 24.2491 0.459976C24.7342 0.134724 25.2193 -0.190528 25.5427 0.134724C25.866 0.459976 26.1894 0.947854 25.866 1.27311C25.5427 1.59836 20.6918 7.45289 18.1047 10.868C15.1942 14.7711 13.5772 18.3488 10.8284 22.5771C10.1816 23.7155 8.40298 26.1549 7.10942 25.9923C6.78603 25.9923 5.65416 22.4145 5.33077 21.6014C4.3606 20.1377 3.22873 17.861 1.1267 15.7468C0.156528 14.7711 -0.490253 14.2832 0.479918 13.3074Z" fill="url(#paint0_linear_1854_2434)"/>
<defs>
<linearGradient id="paint0_linear_1854_2434" x1="26" y1="9.82924" x2="-0.016998" y2="9.96102" gradientUnits="userSpaceOnUse">
<stop stop-color="#EFAB45"/>
<stop offset="1" stop-color="#E87F77"/>
</linearGradient>
</defs>
</svg>
