<svg width="106" height="96" viewBox="0 0 106 96" fill="none" xmlns="http://www.w3.org/2000/svg">
<path d="M1 3.20279C1 1.98622 1.98623 1 3.2028 1H6.70652V6.70652H1V3.20279Z" fill="#55B49C"/>
<g filter="url(#filter0_d_1878_1618)">
<path d="M4.42392 1H103.063C104.685 1 106 2.31497 106 3.93706V79.7381L56.3081 94.587L6.61612 79.7381V43.3477V22.1738V11.5869V6.29346L6.61618 3.88838L6.61618 3.38024C6.6162 2.13722 5.66275 1.10201 4.42392 1Z" fill="#3D8472"/>
</g>
<path d="M97.5472 76.9212L92.0547 78.5158L91.9523 78.1632L86.4598 79.7578L86.5621 80.1104L81.0696 81.7049L80.9673 81.3523L75.4747 82.9469L75.5771 83.2995L70.0846 84.894L69.9822 84.5415L64.4897 86.136L64.592 86.4886L59.0995 88.0832L58.9972 87.7306L56.3533 88.4982L53.7093 87.7306L53.607 88.0832L48.1145 86.4886L48.2168 86.136L42.7243 84.5415L42.6219 84.894L37.1294 83.2995L37.2318 82.9469L31.7392 81.3523L31.6369 81.7049L26.1444 80.1104L26.2467 79.7578L20.7542 78.1632L20.6518 78.5158L15.1593 76.9212L15.2617 76.5686L12.7802 75.8482V73.6447H12.413V68.6864H12.7802V63.728H12.413V58.7696H12.7802V53.8112H12.413V48.8528H12.7802V43.8944H12.413V38.9361H12.7802V33.9777H12.413V29.0193H12.7802V24.0609H12.413V19.1025H12.7802V14.1441H12.413V9.18574H12.7802V7.07368H14.8541V6.70654H19.7364V7.07368H24.6186V6.70654H29.5009V7.07368H34.3831V6.70654H39.2654V7.07368H44.1476V6.70654H49.0299V7.07368H53.9121V6.70654H58.7944V7.07368H63.6766V6.70654H68.5589V7.07368H73.4411V6.70654H78.3234V7.07368H83.2056V6.70654H88.0879V7.07368H92.9701V6.70654H97.8523V7.07368H99.9263V9.18574H100.293V14.1441H99.9263V19.1025H100.293V24.0609H99.9263V29.0193H100.293V33.9777H99.9263V38.936H100.293V43.8944H99.9263V48.8528H100.293V53.8112H99.9263V58.7696H100.293V63.728H99.9263V68.6864H100.293V73.6447H99.9263V75.8482L97.4448 76.5686L97.5472 76.9212Z" stroke="white" stroke-width="0.734265" stroke-dasharray="5.14 5.14"/>
<defs>
<filter id="filter0_d_1878_1618" x="0.752593" y="0.265735" width="105.247" height="95.0554" filterUnits="userSpaceOnUse" color-interpolation-filters="sRGB">
<feFlood flood-opacity="0" result="BackgroundImageFix"/>
<feColorMatrix in="SourceAlpha" type="matrix" values="0 0 0 0 0 0 0 0 0 0 0 0 0 0 0 0 0 0 127 0" result="hardAlpha"/>
<feOffset dx="-2.93706"/>
<feGaussianBlur stdDeviation="0.367133"/>
<feComposite in2="hardAlpha" operator="out"/>
<feColorMatrix type="matrix" values="0 0 0 0 0.0851563 0 0 0 0 0.313015 0 0 0 0 0.454167 0 0 0 0.25 0"/>
<feBlend mode="normal" in2="BackgroundImageFix" result="effect1_dropShadow_1878_1618"/>
<feBlend mode="normal" in="SourceGraphic" in2="effect1_dropShadow_1878_1618" result="shape"/>
</filter>
</defs>
</svg>
